<?xml version="1.0" standalone="no"?>
<!DOCTYPE svg PUBLIC "-//W3C//DTD SVG 20010904//EN"
 "http://www.w3.org/TR/2001/REC-SVG-20010904/DTD/svg10.dtd">
<svg version="1.0" xmlns="http://www.w3.org/2000/svg"
 width="700.000000pt" height="700.000000pt" viewBox="0 0 700.000000 700.000000"
 preserveAspectRatio="xMidYMid meet">
<metadata>
Created by potrace 1.11, written by Peter Selinger 2001-2013
</metadata>
<g transform="translate(0.000000,700.000000) scale(0.100000,-0.100000)"
fill="#000000" stroke="none">
<path d="M3816 6020 c-13 -16 -41 -59 -62 -95 -53 -91 11 16 -514 -855 -283
-469 -623 -1035 -645 -1072 -5 -10 -64 -106 -130 -215 -66 -109 -122 -202
-124 -208 -2 -5 -7 -12 -10 -15 -4 -3 -12 -16 -19 -30 -7 -14 -32 -56 -57 -95
-24 -38 -48 -77 -51 -85 -4 -8 -25 -43 -46 -77 -46 -72 -52 -97 -32 -118 13
-13 85 -15 534 -15 l519 0 15 -22 c8 -12 14 -24 12 -27 -2 -3 -7 -24 -10 -46
-4 -22 -8 -47 -11 -55 -2 -8 -6 -28 -9 -43 -3 -15 -16 -87 -30 -160 -14 -73
-27 -143 -30 -157 -3 -14 -30 -151 -61 -305 -62 -313 -59 -298 -74 -380 -14
-75 -11 -61 -61 -310 -23 -115 -44 -221 -46 -235 -3 -14 -7 -36 -9 -50 -15
-75 -23 -113 -31 -155 -3 -16 -9 -48 -14 -70 -21 -95 -22 -136 -5 -155 27 -30
52 -12 109 74 29 44 124 189 211 321 87 132 186 283 220 335 34 52 124 190
200 305 76 116 181 275 233 355 52 80 129 197 171 260 42 63 78 119 81 125 3
5 71 109 151 230 80 121 179 272 221 335 115 176 344 525 409 624 64 96 76
128 52 147 -11 10 -146 13 -590 13 -561 1 -575 1 -589 21 -10 14 -13 33 -9 65
4 25 8 59 10 76 3 17 7 57 10 90 3 32 8 70 10 84 3 14 7 52 10 85 6 64 9 86
24 210 6 44 13 105 16 135 3 30 8 66 10 80 3 23 15 118 20 165 10 101 17 163
20 181 2 11 6 52 10 90 4 38 9 77 11 86 1 9 6 48 9 85 4 37 8 75 10 83 2 8 7
47 11 85 3 39 8 79 10 90 2 11 6 47 9 80 3 33 8 72 11 87 13 62 -41 94 -80 48z"/>
</g>
</svg>
