<?xml version="1.0" encoding="UTF-8" standalone="no"?>
<!DOCTYPE svg PUBLIC "-//W3C//DTD SVG 1.1//EN" "http://www.w3.org/Graphics/SVG/1.1/DTD/svg11.dtd">
<svg width="100%" height="100%" viewBox="0 0 1000 1000" version="1.1" xmlns="http://www.w3.org/2000/svg" xmlns:xlink="http://www.w3.org/1999/xlink" xml:space="preserve" xmlns:serif="http://www.serif.com/" style="fill-rule:evenodd;clip-rule:evenodd;stroke-linejoin:round;stroke-miterlimit:2;">
    <g transform="matrix(-4.16667,0,0,4.16667,7885.84,-2686.19)">
        <rect x="1.13" y="592.927" width="1917.74" height="343.516" style="fill:rgb(236,212,59);"/>
    </g>
    <g transform="matrix(12.7766,0,0,12.7766,544.918,860.474)">
        <path d="M0,-56.414L-18.954,-24.954C-19.156,-24.619 -18.914,-24.193 -18.523,-24.193L-7.312,-24.193C-6.996,-24.193 -6.758,-23.904 -6.818,-23.595L-11.363,-0.368C-11.468,0.173 -10.75,0.464 -10.448,0.003L11.912,-34.064C12.132,-34.398 11.892,-34.842 11.491,-34.842L-0.983,-34.842C-1.284,-34.842 -1.518,-35.103 -1.482,-35.402L0.931,-56.098C0.993,-56.635 0.279,-56.878 0,-56.414" style="fill:white;fill-rule:nonzero;"/>
    </g>
</svg>
