<?xml version="1.0" encoding="UTF-8" standalone="no"?>
<!DOCTYPE svg PUBLIC "-//W3C//DTD SVG 1.1//EN" "http://www.w3.org/Graphics/SVG/1.1/DTD/svg11.dtd">
<svg width="100%" height="100%" viewBox="0 0 609 523" version="1.1" xmlns="http://www.w3.org/2000/svg" xmlns:xlink="http://www.w3.org/1999/xlink" xml:space="preserve" xmlns:serif="http://www.serif.com/" style="fill-rule:evenodd;clip-rule:evenodd;stroke-linejoin:round;stroke-miterlimit:2;">
    <g transform="matrix(4.16667,0,0,4.16667,-5563.2,-13735.4)">
        <g>
            <g>
                <g transform="matrix(1,0,0,1,1332.53,3326.61)">
                    <g transform="matrix(41.253,0,0,41.253,0,0)">
                        <path d="M0.555,-0L0.555,-0.536L0.403,-0.536L0.403,-0.237C0.403,-0.165 0.366,-0.128 0.308,-0.128C0.25,-0.128 0.216,-0.165 0.216,-0.237L0.216,-0.536L0.064,-0.536L0.064,-0.189C0.064,-0.066 0.131,0.01 0.246,0.01C0.323,0.01 0.368,-0.031 0.403,-0.076L0.403,-0L0.555,-0Z" style="fill:rgb(236,212,59);fill-rule:nonzero;"/>
                    </g>
                </g>
                <g transform="matrix(1,0,0,1,1356.17,3326.61)">
                    <g transform="matrix(41.253,0,0,41.253,0,0)">
                        <path d="M0.559,-0L0.559,-0.347C0.559,-0.47 0.492,-0.546 0.377,-0.546C0.3,-0.546 0.255,-0.505 0.22,-0.46L0.22,-0.536L0.068,-0.536L0.068,-0L0.22,-0L0.22,-0.299C0.22,-0.371 0.257,-0.408 0.315,-0.408C0.373,-0.408 0.407,-0.371 0.407,-0.299L0.407,-0L0.559,-0Z" style="fill:rgb(236,212,59);fill-rule:nonzero;"/>
                    </g>
                    <g transform="matrix(41.253,0,0,41.253,25.7006,0)">
                        <path d="M0.231,-0.595L0.231,-0.73L0.071,-0.73L0.071,-0.595L0.231,-0.595ZM0.227,-0L0.227,-0.536L0.075,-0.536L0.075,-0L0.227,-0Z" style="fill:rgb(236,212,59);fill-rule:nonzero;"/>
                    </g>
                    <g transform="matrix(41.253,0,0,41.253,38.159,0)">
                        <path d="M0.369,-0.022L0.369,-0.144C0.347,-0.132 0.322,-0.125 0.294,-0.125C0.26,-0.125 0.245,-0.142 0.245,-0.177L0.245,-0.406L0.371,-0.406L0.371,-0.536L0.245,-0.536L0.245,-0.673L0.093,-0.673L0.093,-0.536L0.029,-0.536L0.029,-0.406L0.093,-0.406L0.093,-0.152C0.093,-0.028 0.156,0.009 0.249,0.009C0.3,0.009 0.337,-0.003 0.369,-0.022Z" style="fill:rgb(236,212,59);fill-rule:nonzero;"/>
                    </g>
                    <g transform="matrix(41.253,0,0,41.253,54.6602,0)">
                        <path d="M0.568,-0.253L0.568,-0.255C0.568,-0.407 0.486,-0.546 0.307,-0.546C0.151,-0.546 0.042,-0.42 0.042,-0.267L0.042,-0.265C0.042,-0.101 0.161,0.012 0.322,0.012C0.419,0.012 0.491,-0.026 0.541,-0.088L0.454,-0.165C0.412,-0.126 0.375,-0.11 0.324,-0.11C0.256,-0.11 0.208,-0.146 0.193,-0.215L0.566,-0.215C0.567,-0.229 0.568,-0.238 0.568,-0.253ZM0.42,-0.31L0.191,-0.31C0.203,-0.379 0.244,-0.424 0.307,-0.424C0.371,-0.424 0.411,-0.378 0.42,-0.31Z" style="fill:rgb(236,212,59);fill-rule:nonzero;"/>
                    </g>
                </g>
            </g>
            <g>
                <g transform="matrix(1,0,0,1,1360.68,3374.32)">
                    <g transform="matrix(42.383,0,0,42.383,0,0)">
                        <path d="M0.369,-0.022L0.369,-0.144C0.347,-0.132 0.322,-0.125 0.294,-0.125C0.26,-0.125 0.245,-0.142 0.245,-0.177L0.245,-0.406L0.371,-0.406L0.371,-0.536L0.245,-0.536L0.245,-0.673L0.093,-0.673L0.093,-0.536L0.029,-0.536L0.029,-0.406L0.093,-0.406L0.093,-0.152C0.093,-0.028 0.156,0.009 0.249,0.009C0.3,0.009 0.337,-0.003 0.369,-0.022Z" style="fill:white;fill-rule:nonzero;"/>
                    </g>
                </g>
                <g transform="matrix(1,0,0,1,1375.52,3374.32)">
                    <g transform="matrix(42.383,0,0,42.383,0,0)">
                        <path d="M0.622,-0.267L0.622,-0.269C0.622,-0.423 0.499,-0.546 0.333,-0.546C0.166,-0.546 0.042,-0.421 0.042,-0.267L0.042,-0.265C0.042,-0.111 0.165,0.012 0.331,0.012C0.498,0.012 0.622,-0.113 0.622,-0.267ZM0.472,-0.265C0.472,-0.186 0.42,-0.119 0.333,-0.119C0.249,-0.119 0.192,-0.188 0.192,-0.267L0.192,-0.269C0.192,-0.348 0.244,-0.415 0.331,-0.415C0.415,-0.415 0.472,-0.346 0.472,-0.267L0.472,-0.265Z" style="fill:white;fill-rule:nonzero;"/>
                    </g>
                </g>
            </g>
            <g>
                <g transform="matrix(1,0,0,1,1374.79,3415.16)">
                    <g transform="matrix(41.253,0,0,41.253,0,0)">
                        <path d="M0.231,-0.595L0.231,-0.73L0.071,-0.73L0.071,-0.595L0.231,-0.595ZM0.227,-0L0.227,-0.536L0.075,-0.536L0.075,-0L0.227,-0Z" style="fill:rgb(236,212,59);fill-rule:nonzero;"/>
                    </g>
                </g>
                <g transform="matrix(1,0,0,1,1384.36,3415.16)">
                    <g transform="matrix(41.253,0,0,41.253,0,0)">
                        <path d="M0.607,-0.121L0.607,-0.536L0.455,-0.536L0.455,-0.466C0.414,-0.511 0.365,-0.546 0.282,-0.546C0.159,-0.546 0.044,-0.456 0.044,-0.296L0.044,-0.294C0.044,-0.135 0.157,-0.044 0.282,-0.044C0.363,-0.044 0.412,-0.077 0.457,-0.131L0.457,-0.105C0.457,-0.009 0.408,0.041 0.304,0.041C0.233,0.041 0.178,0.023 0.123,-0.008L0.071,0.106C0.139,0.142 0.221,0.162 0.308,0.162C0.507,0.162 0.607,0.081 0.607,-0.121ZM0.457,-0.294C0.457,-0.221 0.4,-0.17 0.326,-0.17C0.252,-0.17 0.196,-0.22 0.196,-0.294L0.196,-0.296C0.196,-0.369 0.252,-0.42 0.326,-0.42C0.4,-0.42 0.457,-0.369 0.457,-0.296L0.457,-0.294Z" style="fill:rgb(236,212,59);fill-rule:nonzero;"/>
                    </g>
                </g>
            </g>
            <g>
                <g transform="matrix(1,0,0,1,1409.32,3415.16)">
                    <g transform="matrix(41.253,0,0,41.253,0,0)">
                        <path d="M0.559,-0L0.559,-0.347C0.559,-0.47 0.492,-0.546 0.377,-0.546C0.3,-0.546 0.255,-0.505 0.22,-0.46L0.22,-0.536L0.068,-0.536L0.068,-0L0.22,-0L0.22,-0.299C0.22,-0.371 0.257,-0.408 0.315,-0.408C0.373,-0.408 0.407,-0.371 0.407,-0.299L0.407,-0L0.559,-0Z" style="fill:rgb(236,212,59);fill-rule:nonzero;"/>
                    </g>
                </g>
                <g transform="matrix(1,0,0,1,1432.95,3415.16)">
                    <g transform="matrix(41.253,0,0,41.253,0,0)">
                        <path d="M0.231,-0.595L0.231,-0.73L0.071,-0.73L0.071,-0.595L0.231,-0.595ZM0.227,-0L0.227,-0.536L0.075,-0.536L0.075,-0L0.227,-0Z" style="fill:rgb(236,212,59);fill-rule:nonzero;"/>
                    </g>
                    <g transform="matrix(41.253,0,0,41.253,12.4584,0)">
                        <path d="M0.369,-0.022L0.369,-0.144C0.347,-0.132 0.322,-0.125 0.294,-0.125C0.26,-0.125 0.245,-0.142 0.245,-0.177L0.245,-0.406L0.371,-0.406L0.371,-0.536L0.245,-0.536L0.245,-0.673L0.093,-0.673L0.093,-0.536L0.029,-0.536L0.029,-0.406L0.093,-0.406L0.093,-0.152C0.093,-0.028 0.156,0.009 0.249,0.009C0.3,0.009 0.337,-0.003 0.369,-0.022Z" style="fill:rgb(236,212,59);fill-rule:nonzero;"/>
                    </g>
                    <g transform="matrix(41.253,0,0,41.253,28.9596,0)">
                        <path d="M0.568,-0.253L0.568,-0.255C0.568,-0.407 0.486,-0.546 0.307,-0.546C0.151,-0.546 0.042,-0.42 0.042,-0.267L0.042,-0.265C0.042,-0.101 0.161,0.012 0.322,0.012C0.419,0.012 0.491,-0.026 0.541,-0.088L0.454,-0.165C0.412,-0.126 0.375,-0.11 0.324,-0.11C0.256,-0.11 0.208,-0.146 0.193,-0.215L0.566,-0.215C0.567,-0.229 0.568,-0.238 0.568,-0.253ZM0.42,-0.31L0.191,-0.31C0.203,-0.379 0.244,-0.424 0.307,-0.424C0.371,-0.424 0.411,-0.378 0.42,-0.31Z" style="fill:rgb(236,212,59);fill-rule:nonzero;"/>
                    </g>
                </g>
            </g>
        </g>
        <g transform="matrix(1,0,0,1,1418.94,3381.73)">
            <path d="M0,-54.593L-18.304,-24.149C-18.499,-23.825 -18.266,-23.412 -17.888,-23.412L-7.062,-23.412C-6.756,-23.412 -6.526,-23.134 -6.585,-22.833L-10.973,-0.358C-11.075,0.166 -10.382,0.448 -10.09,0.002L11.504,-32.965C11.716,-33.288 11.484,-33.717 11.098,-33.717L-0.949,-33.717C-1.24,-33.717 -1.466,-33.971 -1.432,-34.259L0.899,-54.286C0.96,-54.806 0.27,-55.041 0,-54.593" style="fill:white;fill-rule:nonzero;"/>
        </g>
    </g>
</svg>
