<?xml version="1.0" encoding="UTF-8" standalone="no"?>
<!DOCTYPE svg PUBLIC "-//W3C//DTD SVG 1.1//EN" "http://www.w3.org/Graphics/SVG/1.1/DTD/svg11.dtd">
<svg width="100%" height="100%" viewBox="0 0 609 523" version="1.1" xmlns="http://www.w3.org/2000/svg" xmlns:xlink="http://www.w3.org/1999/xlink" xml:space="preserve" xmlns:serif="http://www.serif.com/" style="fill-rule:evenodd;clip-rule:evenodd;stroke-linejoin:round;stroke-miterlimit:2;">
    <g transform="matrix(4.16667,0,0,4.16667,-5563.2,-13735.4)">
        <g>
            <text x="1332.53px" y="3326.61px" style="font-family:'GothamHTF-Bold', 'Gotham HTF';font-weight:700;font-size:41.253px;fill:rgb(236,212,59);">u<tspan x="1356.17px 1379.8px 1390.2px 1404.64px " y="3326.61px 3326.61px 3326.61px 3326.61px ">nite</tspan></text>
            <text x="1360.68px" y="3374.32px" style="font-family:'GothamHTF-Bold', 'Gotham HTF';font-weight:700;font-size:42.383px;fill:white;">t<tspan x="1375.52px " y="3374.32px ">o</tspan></text>
            <text x="1374.79px" y="3415.16px" style="font-family:'GothamHTF-Bold', 'Gotham HTF';font-weight:700;font-size:41.253px;fill:rgb(236,212,59);">i<tspan x="1384.36px " y="3415.16px ">g</tspan></text>
            <text x="1409.32px" y="3415.16px" style="font-family:'GothamHTF-Bold', 'Gotham HTF';font-weight:700;font-size:41.253px;fill:rgb(236,212,59);">n<tspan x="1432.95px 1443.35px 1457.79px " y="3415.16px 3415.16px 3415.16px ">ite</tspan></text>
        </g>
        <g transform="matrix(1,0,0,1,1418.94,3381.73)">
            <path d="M0,-54.593L-18.304,-24.149C-18.499,-23.825 -18.266,-23.412 -17.888,-23.412L-7.062,-23.412C-6.756,-23.412 -6.526,-23.134 -6.585,-22.833L-10.973,-0.358C-11.075,0.166 -10.382,0.448 -10.09,0.002L11.504,-32.965C11.716,-33.288 11.484,-33.717 11.098,-33.717L-0.949,-33.717C-1.24,-33.717 -1.466,-33.971 -1.432,-34.259L0.899,-54.286C0.96,-54.806 0.27,-55.041 0,-54.593" style="fill:white;fill-rule:nonzero;"/>
        </g>
    </g>
</svg>
